<?xml version="1.0" standalone="no"?>
<!DOCTYPE svg PUBLIC "-//W3C//DTD SVG 20010904//EN"
 "http://www.w3.org/TR/2001/REC-SVG-20010904/DTD/svg10.dtd">
<svg version="1.0" xmlns="http://www.w3.org/2000/svg"
 width="1024.000000pt" height="1024.000000pt" viewBox="0 0 1024.000000 1024.000000"
 preserveAspectRatio="xMidYMid meet">
<metadata>
Created by potrace 1.14, written by Peter Selinger 2001-2017
</metadata>
<g transform="translate(0.000000,1024.000000) scale(0.100000,-0.100000)"
fill="#000000" stroke="none">
<path d="M3948 8293 c7 -3 16 -2 19 1 4 3 -2 6 -13 5 -11 0 -14 -3 -6 -6z"/>
<path d="M2452 7594 l3 -687 833 2 833 2 29 -31 30 -32 0 -2439 0 -2439 728
-2 c400 -1 743 -2 762 -2 l35 -1 2 2440 c1 1342 2 2455 3 2473 l0 33 988 -2
987 -1 3 686 2 686 -2620 0 -2620 0 2 -686z m4586 231 c3 -3 -741 -4 -1654 -3
-912 2 -1445 5 -1184 8 596 6 2830 3 2838 -5z m-138 -124 l95 -6 -169 -8 c-93
-4 -537 -7 -987 -7 -449 0 -824 -3 -833 -6 -14 -5 -15 -206 -15 -1927 0 -1057
-3 -2112 -7 -2344 l-7 -421 28 -26 c16 -15 42 -30 59 -35 l31 -9 -31 -1 c-25
-1 -39 7 -63 34 l-31 36 0 2343 0 2344 -22 6 c-13 3 -412 6 -888 6 -476 0
-910 3 -965 8 -77 5 -16 8 260 12 532 8 3435 9 3545 1z m-2110 -199 c0 -5 -84
-12 -187 -15 -259 -9 -1503 -9 -1544 1 -39 8 450 16 1204 20 290 1 527 -2 527
-6z m1984 -1 c8 -12 -597 -23 -1142 -20 l-463 2 -25 -24 c-56 -52 -54 -25 -54
-734 0 -435 -3 -654 -10 -650 -6 4 -10 231 -10 649 0 723 -1 714 68 761 l37
25 797 0 c438 0 799 -4 802 -9z m-134 -137 c30 -3 57 -8 59 -10 2 -2 -314 -4
-703 -4 -752 0 -735 1 -778 -47 -15 -16 -18 -44 -21 -178 l-3 -160 -1 165 c0
91 2 176 6 190 4 14 21 33 41 43 33 18 67 18 690 13 360 -4 680 -9 710 -12z
m-2027 -22 c47 -22 71 -45 82 -82 6 -22 4 -21 -13 6 -11 17 -42 42 -69 55 -45
23 -61 24 -273 29 -212 5 -217 5 -95 10 217 8 320 3 368 -18z m1732 -58 c130
-13 18 -16 -460 -12 -286 3 -533 1 -548 -3 -24 -7 -27 -6 -17 6 6 8 35 16 63
18 66 6 895 -2 962 -9z m108 -11 c-7 -2 -19 -2 -25 0 -7 3 -2 5 12 5 14 0 19
-2 13 -5z m-1746 -80 c-3 -10 -5 -4 -5 12 0 17 2 24 5 18 2 -7 2 -21 0 -30z
m-176 11 c43 -22 32 -26 -26 -9 -27 9 -58 13 -69 9 -17 -4 -18 -3 -6 5 22 15
67 13 101 -5z m1677 6 c-40 -12 -670 -12 -688 0 -10 6 110 9 350 9 201 -1 353
-5 338 -9z m-758 -8 c0 -5 -7 -17 -15 -28 -12 -15 -14 -64 -15 -263 0 -134 -2
-242 -4 -240 -2 2 -7 108 -10 234 -4 127 -9 242 -12 257 -4 19 0 29 13 37 22
13 43 14 43 3z m-132 -134 l-1 -73 -7 65 c-3 36 -5 68 -3 73 10 18 13 2 11
-65z m619 66 c-3 -4 -86 -8 -184 -9 -98 -1 -169 1 -158 6 24 9 351 12 342 3z
m61 -5 c-12 -7 -24 -7 -35 0 -15 9 -12 10 17 10 29 0 32 -1 18 -10z m68 2 c-3
-5 -15 -7 -26 -4 -28 7 -25 13 6 13 14 0 23 -4 20 -9z m-496 -15 c0 -2 -7 -7
-16 -10 -8 -3 -12 -2 -9 4 6 10 25 14 25 6z m669 -52 c2 -2 -117 -4 -266 -4
-232 0 -272 -2 -277 -15 -8 -22 -36 -18 -36 5 0 17 9 20 68 23 76 5 505 -3
511 -9z m58 0 c-3 -3 -12 -4 -19 -1 -8 3 -5 6 6 6 11 1 17 -2 13 -5z m-262
-74 l-120 -6 100 -5 c80 -4 63 -5 -81 -6 -127 -2 -194 -6 -223 -16 -48 -17
-51 -16 -15 8 40 26 102 33 289 32 167 -1 168 -1 50 -7z m158 3 c-7 -2 -19 -2
-25 0 -7 3 -2 5 12 5 14 0 19 -2 13 -5z m-876 -145 c-2 -29 -3 -8 -3 47 0 55
1 79 3 53 2 -26 2 -71 0 -100z m940 126 c-3 -3 -12 -4 -19 -1 -8 3 -5 6 6 6
11 1 17 -2 13 -5z m170 0 c-3 -3 -12 -4 -19 -1 -8 3 -5 6 6 6 11 1 17 -2 13
-5z m-1110 -406 c-2 -29 -3 -8 -3 47 0 55 1 79 3 53 2 -26 2 -71 0 -100z m100
-135 c-2 -21 -4 -4 -4 37 0 41 2 58 4 38 2 -21 2 -55 0 -75z m-7 -274 c0 -5
-22 -9 -50 -9 -33 0 -50 4 -50 13 0 8 15 11 50 9 27 -2 50 -8 50 -13z m-703
-66 c-3 -10 -5 -2 -5 17 0 19 2 27 5 18 2 -10 2 -26 0 -35z m713 -91 c0 -4
-27 -5 -60 -4 -33 2 -60 7 -60 10 0 4 27 5 60 4 33 -2 60 -7 60 -10z m-342
-1354 c-1 -952 -4 -1224 -8 -903 -14 1000 -10 2265 7 2265 1 0 2 -613 1 -1362z
m-371 1280 c-3 -7 -5 -2 -5 12 0 14 2 19 5 13 2 -7 2 -19 0 -25z m0 -375 c-1
-65 -3 -14 -3 112 0 127 2 180 3 118 2 -62 2 -165 0 -230z m612 -2444 l56 -6
-52 -2 c-41 -1 -57 4 -75 22 -13 12 -15 15 -5 7 10 -8 44 -18 76 -21z m-232
-11 c-3 -7 -5 -2 -5 12 0 14 2 19 5 13 2 -7 2 -19 0 -25z m68 -271 c22 -2 -27
-4 -110 -5 -82 -1 -155 2 -162 6 -10 6 178 6 272 -1z m-107 -111 c3 -3 -36 -6
-86 -6 -57 0 -92 4 -92 10 0 11 167 7 178 -4z m115 7 c-13 -2 -35 -2 -50 0
-16 2 -5 4 22 4 28 0 40 -2 28 -4z m-390 -24 c-8 -8 -16 -8 -30 0 -16 9 -14
10 12 11 21 0 26 -3 18 -11z"/>
</g>
</svg>
